<?xml version="1.0" standalone="no"?>
<!DOCTYPE svg PUBLIC "-//W3C//DTD SVG 20010904//EN"
 "http://www.w3.org/TR/2001/REC-SVG-20010904/DTD/svg10.dtd">
<svg version="1.0" xmlns="http://www.w3.org/2000/svg"
 width="200.000000pt" height="200.000000pt" viewBox="0 0 200.000000 200.000000"
 preserveAspectRatio="xMidYMid meet">
<metadata>
Created by potrace 1.11, written by Peter Selinger 2001-2013
</metadata>
<g transform="translate(0.000000,200.000000) scale(0.100000,-0.100000)"
fill="#000000" stroke="none">
<path d="M825 1980 c-47 -22 -72 -44 -104 -88 -18 -25 -28 -32 -49 -29 -96 14
-155 -83 -126 -208 14 -61 9 -152 -15 -270 -14 -73 -16 -96 -6 -125 14 -40 49
-70 90 -74 27 -3 29 -6 31 -57 8 -176 21 -221 71 -255 25 -16 51 -18 222 -19
227 -2 243 3 280 78 22 45 25 47 67 47 118 0 206 114 206 266 1 142 -102 271
-209 264 -56 -4 -58 -1 -26 33 73 75 70 178 -6 245 -14 13 -27 35 -28 48 -5
64 -73 124 -135 119 -18 -2 -47 6 -67 18 -50 28 -144 32 -196 7z m184 -85 c33
-22 43 -25 60 -15 22 11 58 0 73 -24 11 -16 10 -64 -2 -71 -16 -10 -3 -22 29
-28 33 -7 71 -60 71 -99 0 -78 -122 -109 -188 -48 -20 19 -33 20 -199 18
l-177 -3 -7 -35 c-24 -114 -26 -225 -6 -264 19 -35 8 -70 -22 -74 -53 -8 -61
29 -32 167 17 88 19 147 6 272 -7 72 -6 77 15 92 23 16 70 14 81 -5 13 -20 42
-3 53 32 34 112 150 152 245 85z m11 -350 c24 -26 77 -47 117 -47 13 0 21 -3
18 -7 -4 -3 -101 -6 -216 -7 -157 0 -209 2 -209 11 0 7 3 27 6 44 l7 31 127 0
c122 0 127 -1 150 -25z m-197 -128 c2 -7 3 -25 1 -42 -6 -74 -6 -229 1 -327
l7 -108 -26 0 c-28 0 -32 9 -41 95 -6 53 -7 285 -1 349 3 39 19 58 42 49 7 -2
14 -10 17 -16z m157 -230 c0 -243 -4 -266 -41 -246 -17 9 -18 28 -18 241 0
242 4 267 40 247 18 -9 19 -24 19 -242z m149 224 c9 -17 7 -401 -2 -436 -3
-11 -6 -23 -6 -26 -1 -4 -8 -9 -16 -13 -21 -8 -45 20 -38 47 3 12 7 115 8 228
1 113 5 211 9 217 8 14 34 5 45 -17z m224 -9 c82 -72 75 -271 -10 -328 -26
-16 -78 -22 -91 -9 -12 11 -3 337 10 352 15 18 63 10 91 -15z"/>
<path d="M330 342 l0 -338 63 2 c34 1 68 2 75 3 7 0 20 18 29 38 21 52 15 272
-9 287 -14 9 -14 12 -1 32 16 25 23 216 10 267 -9 34 -40 47 -113 47 l-54 0 0
-338z m109 274 c8 -9 11 -52 9 -127 l-3 -114 -33 -3 -33 -3 2 130 c2 128 3
131 24 131 13 0 28 -6 34 -14z m6 -306 c8 -12 10 -239 3 -246 -3 -2 -18 -6
-34 -7 l-29 -2 -1 133 -2 132 29 0 c15 0 31 -5 34 -10z"/>
<path d="M597 673 c-3 -5 -8 -39 -12 -78 -4 -38 -9 -83 -11 -98 -2 -16 -6 -59
-9 -95 -6 -78 -15 -167 -20 -202 -7 -47 -18 -170 -16 -185 1 -15 41 -16 46 -2
4 13 14 111 15 140 0 13 8 17 33 17 l34 0 3 -57 c2 -32 3 -68 3 -80 -1 -24 18
-36 42 -26 12 4 15 17 10 59 -9 98 -14 158 -20 249 -4 50 -8 106 -10 125 -2
20 -7 74 -10 120 -8 113 -11 120 -45 120 -16 0 -31 -3 -33 -7z m37 -213 c3
-47 8 -120 12 -163 l6 -79 -28 4 c-16 2 -28 8 -27 13 0 6 7 78 14 162 7 84 14
151 15 150 1 -1 5 -40 8 -87z"/>
<path d="M745 667 c-3 -7 -4 -158 -3 -336 l3 -324 23 -3 c18 -3 22 1 23 24 0
15 1 85 2 156 2 93 5 130 15 134 6 2 12 -2 13 -10 0 -7 2 -22 4 -33 2 -11 12
-75 21 -142 10 -68 20 -123 23 -124 38 -5 51 -4 51 5 0 6 -9 63 -20 126 -33
190 -33 196 -14 225 13 21 18 51 19 128 2 112 -6 150 -38 172 -26 18 -116 20
-122 2z m96 -58 c17 -32 8 -217 -11 -229 -33 -21 -36 -11 -35 118 1 70 3 128
3 130 7 10 33 -2 43 -19z"/>
<path d="M929 673 c0 -5 -2 -16 -4 -25 -2 -14 4 -18 26 -18 16 0 30 -6 30 -12
1 -7 3 -143 4 -303 2 -160 3 -295 4 -301 0 -6 11 -11 24 -10 l22 1 3 313 c2
241 5 312 15 311 35 -4 47 2 47 26 0 25 -1 25 -85 25 -47 0 -85 -3 -86 -7z"/>
<path d="M1129 673 c-1 -5 -2 -155 -3 -335 -1 -217 2 -328 9 -329 5 -1 40 -2
76 -4 65 -2 66 -2 64 24 -1 23 -5 26 -41 26 -21 0 -44 3 -49 7 -8 5 -13 194
-6 251 1 4 21 7 45 7 37 0 44 3 41 18 -2 9 -4 20 -4 25 -1 4 -20 7 -43 7 l-43
0 0 128 0 127 50 5 c43 4 50 8 51 28 1 21 -2 22 -72 22 -41 0 -75 -3 -75 -7z"/>
<path d="M1332 663 c-12 -10 -26 -31 -30 -48 -7 -24 -9 -469 -3 -548 2 -32 47
-67 86 -67 42 0 84 36 86 72 7 109 3 147 -12 151 -30 8 -38 -7 -36 -68 1 -63
-14 -105 -38 -105 -30 0 -35 39 -35 298 0 225 2 261 16 273 11 9 20 10 32 2
13 -8 18 -28 20 -87 3 -75 3 -76 30 -76 l27 0 -2 82 c-3 102 -20 131 -80 136
-27 2 -47 -3 -61 -15z"/>
<path d="M1509 658 c-1 -26 -1 -615 0 -639 1 -10 9 -16 24 -15 22 1 22 3 25
159 l3 157 35 0 35 0 -1 -127 c-2 -203 -3 -189 25 -189 l25 0 0 338 0 338 -25
0 -25 0 0 -155 0 -155 -35 0 -35 0 0 155 0 155 -25 0 c-19 0 -25 -5 -26 -22z"/>
</g>
</svg>
